<mxfile host="app.diagrams.net" modified="2021-11-10T14:53:05.323Z" agent="5.0 (Windows NT 10.0; Win64; x64) AppleWebKit/537.36 (KHTML, like Gecko) Chrome/95.0.4638.69 Safari/537.36" etag="7IYyBmTFkRZcsInfxJy2" version="15.7.2" type="github">
  <diagram id="7KX0fXeqVIDyUVgM246u" name="Page-1">
    <mxGraphModel dx="868" dy="425" grid="1" gridSize="10" guides="1" tooltips="1" connect="1" arrows="1" fold="1" page="1" pageScale="1" pageWidth="850" pageHeight="1100" math="0" shadow="0">
      <root>
        <mxCell id="0" />
        <mxCell id="1" parent="0" />
        <mxCell id="osdjer9RPLTKaDG0dTGf-8" value="" style="edgeStyle=orthogonalEdgeStyle;rounded=0;orthogonalLoop=1;jettySize=auto;html=1;" parent="1" source="osdjer9RPLTKaDG0dTGf-1" target="osdjer9RPLTKaDG0dTGf-2" edge="1">
          <mxGeometry relative="1" as="geometry" />
        </mxCell>
        <mxCell id="osdjer9RPLTKaDG0dTGf-1" value="Start" style="rounded=1;whiteSpace=wrap;html=1;" parent="1" vertex="1">
          <mxGeometry x="95" y="60" width="130" height="40" as="geometry" />
        </mxCell>
        <mxCell id="osdjer9RPLTKaDG0dTGf-9" value="" style="edgeStyle=orthogonalEdgeStyle;rounded=0;orthogonalLoop=1;jettySize=auto;html=1;" parent="1" source="osdjer9RPLTKaDG0dTGf-2" target="osdjer9RPLTKaDG0dTGf-3" edge="1">
          <mxGeometry relative="1" as="geometry" />
        </mxCell>
        <mxCell id="osdjer9RPLTKaDG0dTGf-2" value="Register" style="rounded=0;whiteSpace=wrap;html=1;" parent="1" vertex="1">
          <mxGeometry x="100" y="150" width="120" height="60" as="geometry" />
        </mxCell>
        <mxCell id="osdjer9RPLTKaDG0dTGf-10" value="" style="edgeStyle=orthogonalEdgeStyle;rounded=0;orthogonalLoop=1;jettySize=auto;html=1;" parent="1" source="osdjer9RPLTKaDG0dTGf-3" target="osdjer9RPLTKaDG0dTGf-4" edge="1">
          <mxGeometry relative="1" as="geometry" />
        </mxCell>
        <mxCell id="osdjer9RPLTKaDG0dTGf-3" value="CONFIRM REGISTRATION VIA EMAIL LINK" style="rounded=0;whiteSpace=wrap;html=1;" parent="1" vertex="1">
          <mxGeometry x="100" y="240" width="120" height="60" as="geometry" />
        </mxCell>
        <mxCell id="osdjer9RPLTKaDG0dTGf-13" style="edgeStyle=orthogonalEdgeStyle;rounded=0;orthogonalLoop=1;jettySize=auto;html=1;exitX=1;exitY=0.5;exitDx=0;exitDy=0;entryX=1;entryY=0.5;entryDx=0;entryDy=0;" parent="1" source="osdjer9RPLTKaDG0dTGf-4" target="osdjer9RPLTKaDG0dTGf-3" edge="1">
          <mxGeometry relative="1" as="geometry" />
        </mxCell>
        <mxCell id="osdjer9RPLTKaDG0dTGf-14" style="edgeStyle=orthogonalEdgeStyle;rounded=0;orthogonalLoop=1;jettySize=auto;html=1;exitX=0.5;exitY=1;exitDx=0;exitDy=0;entryX=0.5;entryY=0;entryDx=0;entryDy=0;" parent="1" source="osdjer9RPLTKaDG0dTGf-4" target="osdjer9RPLTKaDG0dTGf-5" edge="1">
          <mxGeometry relative="1" as="geometry" />
        </mxCell>
        <mxCell id="osdjer9RPLTKaDG0dTGf-4" value="CONFIRMED?" style="rhombus;whiteSpace=wrap;html=1;" parent="1" vertex="1">
          <mxGeometry x="100" y="350" width="120" height="80" as="geometry" />
        </mxCell>
        <mxCell id="osdjer9RPLTKaDG0dTGf-18" style="edgeStyle=orthogonalEdgeStyle;rounded=0;orthogonalLoop=1;jettySize=auto;html=1;exitX=1;exitY=0.5;exitDx=0;exitDy=0;entryX=0;entryY=0.5;entryDx=0;entryDy=0;" parent="1" source="osdjer9RPLTKaDG0dTGf-5" target="osdjer9RPLTKaDG0dTGf-15" edge="1">
          <mxGeometry relative="1" as="geometry" />
        </mxCell>
        <mxCell id="osdjer9RPLTKaDG0dTGf-5" value="SEND EMAIL NOTIFICATION TO ADMIN" style="rounded=0;whiteSpace=wrap;html=1;" parent="1" vertex="1">
          <mxGeometry x="100" y="470" width="120" height="60" as="geometry" />
        </mxCell>
        <mxCell id="osdjer9RPLTKaDG0dTGf-20" value="" style="edgeStyle=orthogonalEdgeStyle;rounded=0;orthogonalLoop=1;jettySize=auto;html=1;" parent="1" source="osdjer9RPLTKaDG0dTGf-15" target="osdjer9RPLTKaDG0dTGf-19" edge="1">
          <mxGeometry relative="1" as="geometry" />
        </mxCell>
        <mxCell id="osdjer9RPLTKaDG0dTGf-15" value="ADMIN TO ASSIGN ROLES" style="rounded=0;whiteSpace=wrap;html=1;" parent="1" vertex="1">
          <mxGeometry x="305" y="60" width="120" height="60" as="geometry" />
        </mxCell>
        <mxCell id="osdjer9RPLTKaDG0dTGf-22" value="" style="edgeStyle=orthogonalEdgeStyle;rounded=0;orthogonalLoop=1;jettySize=auto;html=1;" parent="1" source="osdjer9RPLTKaDG0dTGf-19" target="osdjer9RPLTKaDG0dTGf-21" edge="1">
          <mxGeometry relative="1" as="geometry" />
        </mxCell>
        <mxCell id="osdjer9RPLTKaDG0dTGf-19" value="NOTIFY USER FOR ACTIVATED ROLE" style="rounded=0;whiteSpace=wrap;html=1;" parent="1" vertex="1">
          <mxGeometry x="305" y="150" width="120" height="60" as="geometry" />
        </mxCell>
        <mxCell id="osdjer9RPLTKaDG0dTGf-24" value="" style="edgeStyle=orthogonalEdgeStyle;rounded=0;orthogonalLoop=1;jettySize=auto;html=1;" parent="1" source="osdjer9RPLTKaDG0dTGf-21" target="osdjer9RPLTKaDG0dTGf-23" edge="1">
          <mxGeometry relative="1" as="geometry" />
        </mxCell>
        <mxCell id="osdjer9RPLTKaDG0dTGf-21" value="LOG-IN USING THE CREDENTIALS REGISTERED" style="rounded=0;whiteSpace=wrap;html=1;" parent="1" vertex="1">
          <mxGeometry x="305" y="240" width="120" height="60" as="geometry" />
        </mxCell>
        <mxCell id="osdjer9RPLTKaDG0dTGf-23" value="End" style="rounded=1;whiteSpace=wrap;html=1;" parent="1" vertex="1">
          <mxGeometry x="302.5" y="370" width="125" height="30" as="geometry" />
        </mxCell>
        <mxCell id="osdjer9RPLTKaDG0dTGf-25" value="Y" style="text;whiteSpace=wrap;html=1;" parent="1" vertex="1">
          <mxGeometry x="170" y="440" width="30" height="30" as="geometry" />
        </mxCell>
        <mxCell id="osdjer9RPLTKaDG0dTGf-26" value="N" style="text;whiteSpace=wrap;html=1;" parent="1" vertex="1">
          <mxGeometry x="220" y="360" width="30" height="30" as="geometry" />
        </mxCell>
        <mxCell id="osdjer9RPLTKaDG0dTGf-27" value="REGISTRATION FLOW CHART FOR ADMIN" style="text;whiteSpace=wrap;html=1;" parent="1" vertex="1">
          <mxGeometry x="130" y="20" width="270" height="30" as="geometry" />
        </mxCell>
        <mxCell id="osdjer9RPLTKaDG0dTGf-28" style="edgeStyle=orthogonalEdgeStyle;rounded=0;orthogonalLoop=1;jettySize=auto;html=1;exitX=0.5;exitY=1;exitDx=0;exitDy=0;" parent="1" source="osdjer9RPLTKaDG0dTGf-1" target="osdjer9RPLTKaDG0dTGf-1" edge="1">
          <mxGeometry relative="1" as="geometry" />
        </mxCell>
        <mxCell id="osdjer9RPLTKaDG0dTGf-34" style="edgeStyle=orthogonalEdgeStyle;rounded=0;orthogonalLoop=1;jettySize=auto;html=1;exitX=0.5;exitY=1;exitDx=0;exitDy=0;entryX=0.5;entryY=0;entryDx=0;entryDy=0;" parent="1" source="osdjer9RPLTKaDG0dTGf-29" target="osdjer9RPLTKaDG0dTGf-30" edge="1">
          <mxGeometry relative="1" as="geometry" />
        </mxCell>
        <mxCell id="osdjer9RPLTKaDG0dTGf-29" value="Start" style="rounded=1;whiteSpace=wrap;html=1;" parent="1" vertex="1">
          <mxGeometry x="510" y="70" width="130" height="40" as="geometry" />
        </mxCell>
        <mxCell id="osdjer9RPLTKaDG0dTGf-35" value="" style="edgeStyle=orthogonalEdgeStyle;rounded=0;orthogonalLoop=1;jettySize=auto;html=1;" parent="1" source="osdjer9RPLTKaDG0dTGf-30" target="osdjer9RPLTKaDG0dTGf-31" edge="1">
          <mxGeometry relative="1" as="geometry" />
        </mxCell>
        <mxCell id="osdjer9RPLTKaDG0dTGf-30" value="Register" style="rounded=0;whiteSpace=wrap;html=1;" parent="1" vertex="1">
          <mxGeometry x="515" y="150" width="120" height="60" as="geometry" />
        </mxCell>
        <mxCell id="osdjer9RPLTKaDG0dTGf-36" value="" style="edgeStyle=orthogonalEdgeStyle;rounded=0;orthogonalLoop=1;jettySize=auto;html=1;" parent="1" source="osdjer9RPLTKaDG0dTGf-31" target="osdjer9RPLTKaDG0dTGf-32" edge="1">
          <mxGeometry relative="1" as="geometry" />
        </mxCell>
        <mxCell id="osdjer9RPLTKaDG0dTGf-31" value="CONFIRM REGISTRATION VIA EMAIL LINK" style="rounded=0;whiteSpace=wrap;html=1;" parent="1" vertex="1">
          <mxGeometry x="515" y="240" width="120" height="60" as="geometry" />
        </mxCell>
        <mxCell id="osdjer9RPLTKaDG0dTGf-38" style="edgeStyle=orthogonalEdgeStyle;rounded=0;orthogonalLoop=1;jettySize=auto;html=1;exitX=1;exitY=0.5;exitDx=0;exitDy=0;entryX=1;entryY=0.5;entryDx=0;entryDy=0;" parent="1" source="osdjer9RPLTKaDG0dTGf-32" target="osdjer9RPLTKaDG0dTGf-31" edge="1">
          <mxGeometry relative="1" as="geometry" />
        </mxCell>
        <mxCell id="osdjer9RPLTKaDG0dTGf-40" value="" style="edgeStyle=orthogonalEdgeStyle;rounded=0;orthogonalLoop=1;jettySize=auto;html=1;" parent="1" source="osdjer9RPLTKaDG0dTGf-32" target="osdjer9RPLTKaDG0dTGf-33" edge="1">
          <mxGeometry relative="1" as="geometry" />
        </mxCell>
        <mxCell id="osdjer9RPLTKaDG0dTGf-32" value="CONFIRMED?" style="rhombus;whiteSpace=wrap;html=1;" parent="1" vertex="1">
          <mxGeometry x="515" y="345" width="120" height="80" as="geometry" />
        </mxCell>
        <mxCell id="osdjer9RPLTKaDG0dTGf-44" style="edgeStyle=orthogonalEdgeStyle;rounded=0;orthogonalLoop=1;jettySize=auto;html=1;entryX=0;entryY=0.5;entryDx=0;entryDy=0;" parent="1" source="osdjer9RPLTKaDG0dTGf-33" target="osdjer9RPLTKaDG0dTGf-43" edge="1">
          <mxGeometry relative="1" as="geometry" />
        </mxCell>
        <mxCell id="osdjer9RPLTKaDG0dTGf-33" value="SEND EMAIL NOTIFICATION TO ADMIN" style="rounded=0;whiteSpace=wrap;html=1;" parent="1" vertex="1">
          <mxGeometry x="515" y="470" width="120" height="60" as="geometry" />
        </mxCell>
        <mxCell id="osdjer9RPLTKaDG0dTGf-41" value="Y" style="text;whiteSpace=wrap;html=1;" parent="1" vertex="1">
          <mxGeometry x="590" y="440" width="30" height="30" as="geometry" />
        </mxCell>
        <mxCell id="osdjer9RPLTKaDG0dTGf-42" value="N" style="text;whiteSpace=wrap;html=1;" parent="1" vertex="1">
          <mxGeometry x="630" y="350" width="30" height="30" as="geometry" />
        </mxCell>
        <mxCell id="osdjer9RPLTKaDG0dTGf-46" value="" style="edgeStyle=orthogonalEdgeStyle;rounded=0;orthogonalLoop=1;jettySize=auto;html=1;" parent="1" source="osdjer9RPLTKaDG0dTGf-43" target="osdjer9RPLTKaDG0dTGf-45" edge="1">
          <mxGeometry relative="1" as="geometry" />
        </mxCell>
        <mxCell id="osdjer9RPLTKaDG0dTGf-43" value="LOG-IN" style="rounded=0;whiteSpace=wrap;html=1;" parent="1" vertex="1">
          <mxGeometry x="700" y="70" width="120" height="60" as="geometry" />
        </mxCell>
        <mxCell id="osdjer9RPLTKaDG0dTGf-45" value="End" style="rounded=1;whiteSpace=wrap;html=1;" parent="1" vertex="1">
          <mxGeometry x="697.5" y="165" width="125" height="30" as="geometry" />
        </mxCell>
        <mxCell id="osdjer9RPLTKaDG0dTGf-47" value="REGISTRATION FLOW CHART FOR STUDENTS" style="text;whiteSpace=wrap;html=1;" parent="1" vertex="1">
          <mxGeometry x="520" y="20" width="290" height="30" as="geometry" />
        </mxCell>
        <mxCell id="osdjer9RPLTKaDG0dTGf-49" value="FOR UPDATING INFORMATION ON REGISTRATION" style="text;whiteSpace=wrap;html=1;" parent="1" vertex="1">
          <mxGeometry x="130" y="570" width="300" height="30" as="geometry" />
        </mxCell>
        <mxCell id="osdjer9RPLTKaDG0dTGf-57" value="" style="edgeStyle=orthogonalEdgeStyle;rounded=0;orthogonalLoop=1;jettySize=auto;html=1;" parent="1" source="osdjer9RPLTKaDG0dTGf-50" target="osdjer9RPLTKaDG0dTGf-51" edge="1">
          <mxGeometry relative="1" as="geometry" />
        </mxCell>
        <mxCell id="osdjer9RPLTKaDG0dTGf-50" value="Start" style="rounded=1;whiteSpace=wrap;html=1;" parent="1" vertex="1">
          <mxGeometry x="105" y="620" width="130" height="40" as="geometry" />
        </mxCell>
        <mxCell id="osdjer9RPLTKaDG0dTGf-58" value="" style="edgeStyle=orthogonalEdgeStyle;rounded=0;orthogonalLoop=1;jettySize=auto;html=1;" parent="1" source="osdjer9RPLTKaDG0dTGf-51" target="osdjer9RPLTKaDG0dTGf-52" edge="1">
          <mxGeometry relative="1" as="geometry" />
        </mxCell>
        <mxCell id="osdjer9RPLTKaDG0dTGf-51" value="LOG-IN" style="rounded=0;whiteSpace=wrap;html=1;" parent="1" vertex="1">
          <mxGeometry x="110" y="690" width="120" height="60" as="geometry" />
        </mxCell>
        <mxCell id="osdjer9RPLTKaDG0dTGf-59" value="" style="edgeStyle=orthogonalEdgeStyle;rounded=0;orthogonalLoop=1;jettySize=auto;html=1;" parent="1" source="osdjer9RPLTKaDG0dTGf-52" edge="1">
          <mxGeometry relative="1" as="geometry">
            <mxPoint x="170" y="890" as="targetPoint" />
          </mxGeometry>
        </mxCell>
        <mxCell id="osdjer9RPLTKaDG0dTGf-52" value="EDIT PROFILE" style="rounded=0;whiteSpace=wrap;html=1;" parent="1" vertex="1">
          <mxGeometry x="110" y="790" width="120" height="60" as="geometry" />
        </mxCell>
        <mxCell id="UG-OI_gdKdAE9tB8Vck3-9" value="" style="edgeStyle=orthogonalEdgeStyle;rounded=0;orthogonalLoop=1;jettySize=auto;html=1;" edge="1" parent="1" source="osdjer9RPLTKaDG0dTGf-55" target="osdjer9RPLTKaDG0dTGf-56">
          <mxGeometry relative="1" as="geometry" />
        </mxCell>
        <mxCell id="osdjer9RPLTKaDG0dTGf-55" value="UPDATE" style="rounded=0;whiteSpace=wrap;html=1;" parent="1" vertex="1">
          <mxGeometry x="110" y="1110" width="120" height="60" as="geometry" />
        </mxCell>
        <mxCell id="osdjer9RPLTKaDG0dTGf-56" value="End" style="rounded=1;whiteSpace=wrap;html=1;" parent="1" vertex="1">
          <mxGeometry x="107.5" y="1210" width="125" height="30" as="geometry" />
        </mxCell>
        <mxCell id="UG-OI_gdKdAE9tB8Vck3-3" value="" style="edgeStyle=elbowEdgeStyle;rounded=0;orthogonalLoop=1;jettySize=auto;html=1;" edge="1" parent="1" source="UG-OI_gdKdAE9tB8Vck3-1" target="UG-OI_gdKdAE9tB8Vck3-2">
          <mxGeometry relative="1" as="geometry" />
        </mxCell>
        <mxCell id="UG-OI_gdKdAE9tB8Vck3-1" value="ADMIN NOTIFICATION" style="rounded=0;whiteSpace=wrap;html=1;" vertex="1" parent="1">
          <mxGeometry x="110" y="890" width="120" height="60" as="geometry" />
        </mxCell>
        <mxCell id="UG-OI_gdKdAE9tB8Vck3-7" value="" style="edgeStyle=orthogonalEdgeStyle;rounded=0;orthogonalLoop=1;jettySize=auto;html=1;" edge="1" parent="1" source="UG-OI_gdKdAE9tB8Vck3-2" target="osdjer9RPLTKaDG0dTGf-55">
          <mxGeometry relative="1" as="geometry" />
        </mxCell>
        <mxCell id="UG-OI_gdKdAE9tB8Vck3-14" style="edgeStyle=orthogonalEdgeStyle;rounded=0;orthogonalLoop=1;jettySize=auto;html=1;entryX=1;entryY=0.5;entryDx=0;entryDy=0;" edge="1" parent="1" source="UG-OI_gdKdAE9tB8Vck3-2" target="osdjer9RPLTKaDG0dTGf-51">
          <mxGeometry relative="1" as="geometry">
            <mxPoint x="290" y="900" as="targetPoint" />
            <Array as="points">
              <mxPoint x="250" y="1030" />
              <mxPoint x="250" y="720" />
            </Array>
          </mxGeometry>
        </mxCell>
        <mxCell id="UG-OI_gdKdAE9tB8Vck3-2" value="APPROVED" style="rhombus;whiteSpace=wrap;html=1;" vertex="1" parent="1">
          <mxGeometry x="110" y="990" width="120" height="80" as="geometry" />
        </mxCell>
        <mxCell id="UG-OI_gdKdAE9tB8Vck3-10" value="Y" style="text;whiteSpace=wrap;html=1;" vertex="1" parent="1">
          <mxGeometry x="180" y="1080" width="30" height="30" as="geometry" />
        </mxCell>
        <mxCell id="UG-OI_gdKdAE9tB8Vck3-15" value="N" style="text;whiteSpace=wrap;html=1;" vertex="1" parent="1">
          <mxGeometry x="225" y="1000" width="30" height="30" as="geometry" />
        </mxCell>
      </root>
    </mxGraphModel>
  </diagram>
</mxfile>
